<svg width="35" height="35" viewBox="0 0 35 35" fill="none" xmlns="http://www.w3.org/2000/svg">
<path d="M12.1277 14.7768C12.0994 14.7768 12.0711 14.7768 12.0428 14.7485C11.094 13.4741 10.8533 11.2934 10.7825 10.458C10.7825 10.3022 10.5984 10.2031 10.4568 10.288C7.48319 11.9448 4.75028 15.8813 4.75028 19.6762C4.75028 26.1899 9.28153 31.6557 17.0696 31.6557C24.3621 31.6557 29.3889 26.02 29.3889 19.6762C29.3889 11.3642 23.4417 5.84175 18.1599 3.34957C18.1291 3.33263 18.0941 3.32486 18.0591 3.32718C18.024 3.32951 17.9903 3.34182 17.962 3.36267C17.9337 3.38352 17.912 3.41203 17.8994 3.44484C17.8868 3.47765 17.8838 3.51338 17.8909 3.54781C18.5706 8.02242 17.636 12.8935 12.1277 14.7768Z" fill="url(#paint0_linear_104_1116)"/>
<defs>
<linearGradient id="paint0_linear_104_1116" x1="7.10491" y1="5.84377" x2="24.2913" y2="27.6909" gradientUnits="userSpaceOnUse">
<stop stop-color="#FF3863"/>
<stop offset="1" stop-color="#FF5E51"/>
</linearGradient>
</defs>
</svg>
